REM GENRE Breakbeat
REM DATE 2011
REM COMMENT "DCue v1.4dev"
PERFORMER "Various"
TITLE "Hardcore Underground 5"
FILE "r3151795.cue" WAVE
	TRACK 01 AUDIO
		TITLE "Can You Hear The Silence"
		PERFORMER "Entity & Chwhynny"
		INDEX 01 00:00:00
	TRACK 02 AUDIO
		TITLE "Chime"
		PERFORMER "Fracus & Darwin Vs. CLSM Feat. Indie-Go Blue"
		INDEX 01 02:05:00
	TRACK 03 AUDIO
		TITLE "Burning Up"
		PERFORMER "Sam B"
		INDEX 01 04:48:00
	TRACK 04 AUDIO
		TITLE "Ganja Crew"
		PERFORMER "Fracus & Darwin"
		INDEX 01 06:58:00
	TRACK 05 AUDIO
		TITLE "Got The Rhythm"
		PERFORMER "Fracus & Darwin Feat. Becca Hossany"
		INDEX 01 08:25:00
	TRACK 06 AUDIO
		TITLE "Movin' To This"
		PERFORMER "JAKAZiD"
		INDEX 01 12:25:00
	TRACK 07 AUDIO
		TITLE "My Heartbeat"
		PERFORMER "Brisk & Darwin Vs. DMO"
		INDEX 01 17:08:00
	TRACK 08 AUDIO
		TITLE "Madjik"
		PERFORMER "Fracus"
		INDEX 01 21:19:00
	TRACK 09 AUDIO
		TITLE "Hypnotic"
		PERFORMER "Fracus & Darwin Feat. Becca Hossany"
		INDEX 01 24:51:00
	TRACK 10 AUDIO
		TITLE "Lose You Again"
		PERFORMER "Brooklyn & Dan Edge"
		INDEX 01 27:45:00
	TRACK 11 AUDIO
		TITLE "Route 143 (TANUKI Remix)"
		PERFORMER "M-Project"
		INDEX 01 29:55:00
	TRACK 12 AUDIO
		TITLE "Goodbye (Fracus & Darwin Remix)"
		PERFORMER "Buzz & Stevie D Feat. Jessica Palmer"
		INDEX 01 32:03:00
	TRACK 13 AUDIO
		TITLE "Blessed Loneliness"
		PERFORMER "Daniel Seven"
		INDEX 01 36:31:00
	TRACK 14 AUDIO
		TITLE "Shouting Out (Fracus & Darwin Remix)"
		PERFORMER "Brisk & Vagabond"
		INDEX 01 38:39:00
	TRACK 15 AUDIO
		TITLE "The New Style"
		PERFORMER "Bishop & Tom Revolution"
		INDEX 01 40:37:00
	TRACK 16 AUDIO
		TITLE "Love Sick Crazy (Fracus & Darwin Remix)"
		PERFORMER "Styles & Breeze Feat. Recon"
		INDEX 01 41:50:00
	TRACK 17 AUDIO
		TITLE "Life's A Journey"
		PERFORMER "Brisk & Darwin Feat. Taya"
		INDEX 01 44:52:00
	TRACK 18 AUDIO
		TITLE "Falling Into You"
		PERFORMER "Brisk & Fracus"
		INDEX 01 49:01:00
	TRACK 19 AUDIO
		TITLE "Break The Concrete"
		PERFORMER "Brisk & Darwin"
		INDEX 01 52:03:00
	TRACK 20 AUDIO
		TITLE "Radio Rockin' 2011"
		PERFORMER "Brisk & Fracus"
		INDEX 01 54:43:00
	TRACK 21 AUDIO
		TITLE "Sex Toys"
		PERFORMER "Brisk & Ham"
		INDEX 01 57:59:00
	TRACK 22 AUDIO
		TITLE "Bulletproof"
		PERFORMER "Double Dutch"
		INDEX 01 59:56:00
	TRACK 23 AUDIO
		TITLE "I'm Not An Addict (Brisk Remix)"
		PERFORMER "Paul Elstak Feat. Beatstream & Radiate"
		INDEX 01 62:23:00
	TRACK 24 AUDIO
		TITLE "God's Fury"
		PERFORMER "Art Of Fighters"
		INDEX 01 65:59:00
	TRACK 25 AUDIO
		TITLE "Snitcher!"
		PERFORMER "Neophyte & Tha Playah"
		INDEX 01 67:49:00
	TRACK 26 AUDIO
		TITLE "Pitch Black (Kasparov Remix)"
		PERFORMER "Kasparov"
		INDEX 01 69:55:00
